<?xml version="1.0" encoding="utf-8"?>
<!-- Generator: Adobe Illustrator 25.2.3, SVG Export Plug-In . SVG Version: 6.00 Build 0)  -->
<svg version="1.1" id="Ebene_1" xmlns="http://www.w3.org/2000/svg" xmlns:xlink="http://www.w3.org/1999/xlink" x="0px" y="0px"
	 viewBox="0 0 512 512" style="enable-background:new 0 0 512 512;" xml:space="preserve">
<g>
	<defs>
		<rect id="SVGID_1_" x="11.1" y="42.1" width="489.8" height="427.8"/>
	</defs>
	<clipPath id="SVGID_2_">
		<use xlink:href="#SVGID_1_"  style="overflow:visible;"/>
	</clipPath>
	<path d="M369.6,42.1c-16.4,0-33.7,12.3-53.2,37.6c-35.9,46.7-137.5,51.8-179.6,51.8c-18.9,0-31.4-0.9-31.5-1
		c-0.4,0-0.7,0-1.1,0c-51.4,0-93.2,44.7-93.2,99.6s34.9,92.6,86.3,92.6c44.4,1,176.3,20.5,217.2,65.1c18.2,19.9,38.2,30.8,56.3,30.8
		c10.7,0,19.9-3.8,26.7-11.1c6.9-7.4,10.5-17.5,10.5-29.3c0-29.4,0-287.7,0-290.3h-0.1c0.2-10.7-6.3-23.2-7.2-24.9
		C393.4,49.5,382.4,42.1,369.6,42.1L369.6,42.1z M369.6,58.5c18.7,0,23.6,29.4,23,29.4h0c0,0-0.1,260.6,0,290.3
		c0,15.2-8.7,23.9-21.8,23.9c-12.5,0-28.9-8-45.3-25.9c-54.2-59.2-228.2-70-228.2-70c-42.8,0-70.9-30.4-70.9-76.1s35-83.2,77.8-83.2
		c0,0,12.8,1,32.6,1c52.2,0,152.4-7,191.5-57.8C346.6,66.4,359.9,58.5,369.6,58.5"/>
	<path d="M191.4,333.6c-4.2,0-7.7-3.7-7.7-8.2V161c0-4.5,3.4-8.2,7.7-8.2c4.2,0,7.7,3.7,7.7,8.2v164.4
		C199,330,195.6,333.6,191.4,333.6"/>
	<path d="M342.3,407.3c-4.2,0-7.7-3.7-7.7-8.2V235c0-4.5,3.4-8.2,7.7-8.2s7.7,3.7,7.7,8.2v164.1
		C350,403.6,346.5,407.3,342.3,407.3"/>
	<path d="M104.5,311.1c-3.9,0-7.8,1.6-10.6,4.6c-3.3,3.4-5,8.1-4.7,13c3.5,53.5,17.2,101.2,38.7,134.1
		c2.9,4.4,7.6,7,12.6,7h50.9c5.1,0,9.8-2.7,12.7-7.1c2.9-4.5,3.5-10.2,1.7-15.2c-14-38.6-19.9-72.1-19.9-112
		c0-8.4-5.9-15.4-13.6-16.3l-65.9-8C105.6,311.2,105,311.1,104.5,311.1 M104.5,327.6l65.9,8c0,46,7.7,81.1,21,117.9h-50.9
		C121.2,423.9,107.8,379.1,104.5,327.6"/>
	<path d="M493.2,247.2h-55.9c-4.2,0-7.7-3.7-7.7-8.2c0-4.5,3.4-8.2,7.7-8.2h55.9c4.2,0,7.7,3.7,7.7,8.2
		C500.9,243.5,497.5,247.2,493.2,247.2"/>
	<path d="M437.3,156.8c-2.3,0-4.6-1.1-6.1-3.3c-2.6-3.6-1.9-8.8,1.5-11.5l39.1-31.5c3.4-2.7,8.2-2,10.8,1.6
		c2.6,3.6,1.9,8.8-1.5,11.5L442,155.2C440.6,156.3,439,156.8,437.3,156.8"/>
	<path d="M476.5,361.1c-1.6,0-3.2-0.5-4.6-1.7l-39.1-31.5c-3.4-2.7-4.1-7.9-1.5-11.5c2.5-3.6,7.4-4.3,10.8-1.6
		l39.1,31.5c3.4,2.7,4.1,7.9,1.5,11.5C481.1,360,478.8,361.1,476.5,361.1"/>
</g>
</svg>
