<?xml version="1.0" encoding="utf-8"?>
<!-- Generator: Adobe Illustrator 25.2.3, SVG Export Plug-In . SVG Version: 6.00 Build 0)  -->
<svg version="1.1" id="Ebene_1" xmlns="http://www.w3.org/2000/svg" xmlns:xlink="http://www.w3.org/1999/xlink" x="0px" y="0px"
	 viewBox="0 0 512 512" style="enable-background:new 0 0 512 512;" xml:space="preserve">
<g>
	<g>
		<g>
			<path d="M251.3,452.2c-132.4,0-240.1-80.8-240.1-180c0-99.3,107.7-180,240.1-180s240.1,80.8,240.1,180
				c0,30.2-10.1,60.1-29.3,86.4c0.7,5.7,13.4,22.1,21,32c17.7,22.8,32.9,42.6,19.4,53c-9.9,7.7-32.6,2.5-72-7.2
				c-19.8-4.9-49.8-12.3-55.8-9.7C337.5,443.4,294.8,452.2,251.3,452.2z M251.3,108C127.6,108,27,181.7,27,272.2
				s100.6,164.1,224.2,164.1c41.3,0,81.7-8.3,116.8-24.1c10.4-4.7,31.9,0.3,66.2,8.8c18.3,4.5,48.1,11.9,57.1,10.4
				c-1.9-6.5-13.6-21.6-20.9-31.1c-16.9-21.8-30.2-39.1-21.8-50.4c17.5-23.8,26.8-50.6,26.8-77.8C475.5,181.7,374.9,108,251.3,108z"
				/>
		</g>
	</g>
	<g>
		<rect x="108.2" y="216.3" width="288.5" height="17.1"/>
	</g>
	<g>
		<rect x="108.2" y="263.6" width="288.5" height="17.1"/>
	</g>
	<g>
		<rect x="108.2" y="311" width="288.5" height="17.1"/>
	</g>
</g>
</svg>
