<?xml version="1.0" encoding="utf-8"?>
<!-- Generator: Adobe Illustrator 25.2.3, SVG Export Plug-In . SVG Version: 6.00 Build 0)  -->
<svg version="1.1" id="Ebene_1" xmlns="http://www.w3.org/2000/svg" xmlns:xlink="http://www.w3.org/1999/xlink" x="0px" y="0px"
	 viewBox="0 0 512 512" style="enable-background:new 0 0 512 512;" xml:space="preserve">
<g>
	<g>
		<defs>
			<rect id="SVGID_1_" x="15.5" y="29.5" width="477.6" height="477.6"/>
		</defs>
		<clipPath id="SVGID_2_">
			<use xlink:href="#SVGID_1_"  style="overflow:visible;"/>
		</clipPath>
		<path d="M70.5,48.5c-19.9,0-36,16.2-36,36V452c0,19.9,16.2,36,36,36H438c19.9,0,36-16.2,36-36V84.5
			c0-19.9-16.2-36-36-36H70.5z M438,507H70.5c-30.3,0-55-24.7-55-55V84.5c0-30.3,24.7-55,55-55H438c30.3,0,55,24.7,55,55V452
			C493,482.4,468.3,507,438,507"/>
	</g>
	<g>
		<defs>
			<rect id="SVGID_3_" x="15.5" y="29.5" width="477.6" height="477.6"/>
		</defs>
		<clipPath id="SVGID_4_">
			<use xlink:href="#SVGID_3_"  style="overflow:visible;"/>
		</clipPath>
		<path d="M254.2,426.8c-43.5,0-84.1-17.3-114.2-48.6c-30.2-31.3-45.9-72.6-44.2-116.1c3.1-82.3,70-149.1,152.3-152.3
			c46.8-1.7,91.7,17,123.2,51.5c26.7,29.3,41.5,67.2,41.5,106.9c0,16.2-2.4,32.2-7.2,47.5c-6.1,19.4-23.8,32.4-44.2,32.4
			c-25.5,0-46.2-20.7-46.2-46.2v-33.7h19V302c0,15,12.2,27.3,27.3,27.3c12,0,22.5-7.7,26-19.1c4.2-13.5,6.4-27.5,6.4-41.8
			c0-34.9-13-68.4-36.5-94.1c-27.8-30.4-67.3-46.9-108.5-45.3c-72.4,2.8-131.3,61.6-134,134c-1.5,38.4,12.4,74.7,38.9,102.2
			c26.6,27.6,62.3,42.8,100.6,42.8v18.8H254.2z"/>
	</g>
	<g>
		<defs>
			<rect id="SVGID_5_" x="15.5" y="29.5" width="477.6" height="477.6"/>
		</defs>
		<clipPath id="SVGID_6_">
			<use xlink:href="#SVGID_5_"  style="overflow:visible;"/>
		</clipPath>
		<path d="M249.4,367c-46.7,0-84.7-44.3-84.7-98.7s38-98.7,84.7-98.7s84.7,44.3,84.7,98.7h-19c0-44-29.5-79.7-65.8-79.7
			s-65.8,35.8-65.8,79.7c0,44,29.5,79.7,65.8,79.7c15.2,0,29.5-6.1,41.3-17.7l13.3,13.6C288.7,358.8,269.4,367,249.4,367"/>
	</g>
</g>
</svg>
