<?xml version="1.0" encoding="utf-8"?>
<!-- Generator: Adobe Illustrator 25.2.3, SVG Export Plug-In . SVG Version: 6.00 Build 0)  -->
<svg version="1.1" id="Ebene_1" xmlns="http://www.w3.org/2000/svg" xmlns:xlink="http://www.w3.org/1999/xlink" x="0px" y="0px"
	 viewBox="0 0 512 512" style="enable-background:new 0 0 512 512;" xml:space="preserve">
<g>
	<g>
		<defs>
			<rect id="SVGID_1_" x="11.1" y="39.7" width="496.7" height="463.4"/>
		</defs>
		<clipPath id="SVGID_2_">
			<use xlink:href="#SVGID_1_"  style="overflow:visible;"/>
		</clipPath>
		<g>
			<path d="M53,327.6c-11.2,0-21.7-4.4-29.7-12.3c-7.9-7.9-12.3-18.4-12.3-29.7c0-11.2,4.4-21.8,12.3-29.7L225.7,53.6
				c8.1-8.1,22.3-13.9,33.8-13.9c12.6,0,23.2,2.2,33.7,12.7l202.3,202.3c7.9,7.9,12.3,18.5,12.3,29.7c0,11.2-4.4,21.7-12.3,29.7
				c-7.9,7.9-18.5,12.3-29.7,12.3s-21.7-4.4-29.7-12.3L260,137.9L82.7,315.3C74.8,323.2,64.3,327.6,53,327.6
				C53.1,327.6,53.1,327.6,53,327.6z M259.5,58.3c-6.6,0-16.1,3.9-20.7,8.5L36.5,269.1c-4.4,4.4-6.8,10.3-6.8,16.5
				s2.4,12.1,6.8,16.5S46.8,309,53,309l0,0c6.2,0,12.1-2.4,16.5-6.8L260,111.7L449.3,301c4.4,4.4,10.3,6.9,16.5,6.9
				s12.1-2.4,16.5-6.9c9.1-9.1,9.1-24,0-33.1L280.1,65.6C274.5,60,269.7,58.3,259.5,58.3z"/>
		</g>
	</g>
	<g>
		<defs>
			<rect id="SVGID_3_" x="11.1" y="39.7" width="496.7" height="463.4"/>
		</defs>
		<clipPath id="SVGID_4_">
			<use xlink:href="#SVGID_3_"  style="overflow:visible;"/>
		</clipPath>
		<g>
			<path d="M388,503.2H141.7c-29.3,0-53.1-23.8-53.1-53.1v-167L260,111.7l181.1,181.1V450
				C441.1,479.3,417.3,503.2,388,503.2z M326,484.6h62c19.1,0,34.6-15.5,34.6-34.6V300.4L260,137.9L107.2,290.8V450
				c0,19.1,15.5,34.6,34.6,34.6H189V361.1c0-19.6,10.9-35,24.8-35h87.3c13.9,0,24.8,15.4,24.8,35v123.5H326z M207.6,484.6h99.8
				V361.1c0-10.6-4.7-16.5-6.3-16.5h-87.3c-1.6,0-6.3,5.8-6.3,16.5L207.6,484.6L207.6,484.6z"/>
		</g>
	</g>
</g>
</svg>
