<?xml version="1.0" encoding="utf-8"?>
<!-- Generator: Adobe Illustrator 25.2.3, SVG Export Plug-In . SVG Version: 6.00 Build 0)  -->
<svg version="1.1" id="Ebene_1" xmlns="http://www.w3.org/2000/svg" xmlns:xlink="http://www.w3.org/1999/xlink" x="0px" y="0px"
	 viewBox="0 0 512 512" style="enable-background:new 0 0 512 512;" xml:space="preserve">
<g>
	<defs>
		<rect id="SVGID_1_" x="89.3" y="5.4" width="333.4" height="500.1"/>
	</defs>
	<clipPath id="SVGID_2_">
		<use xlink:href="#SVGID_1_"  style="overflow:visible;"/>
	</clipPath>
	<path d="M231.8,145c-3.5,5.1-5.5,11.1-5.5,17.4c0,6.3,1.9,12.3,5.4,17.4c4.7-6.7,6.5-15.1,4.8-23.6
		C235.8,152.2,234.1,148.4,231.8,145 M281.9,145c-2.3,3.3-4,7.2-4.8,11.3c-1.7,8.5,0.1,16.9,4.8,23.6c4.7-6.7,6.5-15.1,4.8-23.7
		C285.9,152.1,284.2,148.3,281.9,145 M293.4,368.7h-16.7v-94.3c0-20.3,6.3-39.7,18.2-56.1l33.8-46.5c4.2-5.8,5.9-13.1,4.5-20.2
		c-1.2-6.3-4.7-11.6-9.8-14.9c-6.8-4.3-15-5.8-23.1-4.1c-1.9,0.4-3.7,1-5.4,1.7c4,5.5,6.9,11.8,8.3,18.6c3.3,16.9-2.3,33.6-15,44.9
		c0,0.1-0.1,0.1-0.1,0.2c-3.1,3.2-8,3.5-11.4,0.6c-13.4-11.2-19.3-28.3-15.9-45.6c1.3-6.8,4.2-13.2,8.3-18.6
		c-1.7-0.7-3.6-1.3-5.4-1.7c-6.5-1.4-13-0.7-18.7,1.8c4,5.4,6.9,11.8,8.2,18.5c3.4,17.3-2.5,34.3-15.8,45.6c-1,0.8-2.1,1.4-3.4,1.7
		c-2.6,0.7-5.4,0-7.4-1.7c-10.6-9-16.7-22.1-16.7-36.1c0-10.3,3.3-20,9.2-28.1c-1.8-0.7-3.6-1.3-5.5-1.7c-8.2-1.7-16.5-0.2-23.3,4.3
		c-5.1,3.4-8.6,8.7-9.8,14.9c-1.3,6.8,0.2,14,4.1,19.7l34.1,49.4c11.1,16,16.9,34.8,16.9,54.2v93.5h-16.7v-93.5
		c0-16-4.8-31.5-14-44.7l-34.1-49.4c-6.5-9.4-9-21.2-6.8-32.4c2.1-10.7,8.2-19.8,17.1-25.7c10.5-6.9,23.3-9.3,35.9-6.7
		c5.4,1.1,10.5,3.2,15.1,6.1c10.3-6.4,22.8-8.7,35.1-6.1c5.4,1.1,10.4,3.2,15,6.1c4.6-2.9,9.6-4.9,15-6.1c12.4-2.6,25-0.3,35.5,6.4
		c9.1,5.8,15.2,15,17.3,25.9c2.2,11.5-0.5,23.6-7.5,33.1l-33.8,46.5c-9.8,13.5-15,29.5-15,46.2V368.7z"/>
	<path d="M213.8,360.5l84.4,0c2.6-25.2,16.7-48,38.8-62.2c43.2-27.7,69-74.9,69-126.2c0-41.8-16.8-80.6-47.3-109.3
		c-30.5-28.6-70.3-43-112.4-40.3c-76.3,4.8-137.9,68.5-140.2,145c-1.6,53.3,24.2,102.3,69.1,131
		C197.2,312.5,211.2,335.3,213.8,360.5 M306.1,377.2H205.8c-4.6,0-8.4-3.7-8.4-8.4c0-22.8-11.7-43.8-31.2-56.3
		c-49.9-31.9-78.6-86.3-76.9-145.6c2.6-85.1,71-155.9,155.9-161.2c46.6-2.9,91,13,124.8,44.8c33.4,31.4,52.6,75.7,52.6,121.5
		c0,57-28.7,109.5-76.7,140.3c-19.7,12.7-31.5,33.8-31.5,56.5C314.5,373.5,310.7,377.2,306.1,377.2"/>
	<path d="M237.1,459.8c3.2,7.2-2,29,18.9,29c21.6,0,15.7-21.8,18.9-29H237.1z M256,505.5c-40,0-37.4-33.5-37.4-54.1
		c0-4.6,3.7-8.4,8.4-8.4h58c4.6,0,8.4,3.7,8.4,8.4C293.3,472,297.2,506.6,256,505.5"/>
	<path d="M199.3,377.1c-2,0-3.7,1.7-3.7,3.7V398c0,2,1.7,3.7,3.7,3.7h113.4c2,0,3.7-1.7,3.7-3.7v-17.3
		c0-2-1.7-3.7-3.7-3.7H199.3z M312.7,418.4H199.3c-11.3,0-20.4-9.2-20.4-20.4v-17.3c0-11.3,9.2-20.4,20.4-20.4h113.4
		c11.3,0,20.4,9.2,20.4,20.4V398C333.1,409.3,323.9,418.4,312.7,418.4"/>
	<path d="M207.9,418.4c-3.3,0-6.4,1.3-8.7,3.6c-2.3,2.3-3.6,5.4-3.6,8.7c0,6.8,5.5,12.3,12.3,12.3h96.2
		c3.3,0,6.3-1.3,8.7-3.6c2.4-2.4,3.6-5.4,3.6-8.7c0-6.8-5.5-12.3-12.3-12.3H207.9z M304.1,459.8h-96.2c-16,0-29.1-13-29.1-29.1
		c0-7.7,3-15,8.5-20.5c5.5-5.5,12.8-8.5,20.5-8.5h96.2c16,0,29,13,29,29c0,7.7-3,15-8.5,20.5C319.1,456.8,311.8,459.8,304.1,459.8"
		/>
</g>
</svg>
