<?xml version="1.0" encoding="utf-8"?>
<!-- Generator: Adobe Illustrator 25.2.3, SVG Export Plug-In . SVG Version: 6.00 Build 0)  -->
<svg version="1.1" id="Ebene_1" xmlns="http://www.w3.org/2000/svg" xmlns:xlink="http://www.w3.org/1999/xlink" x="0px" y="0px"
	 viewBox="0 0 512 512" style="enable-background:new 0 0 512 512;" xml:space="preserve">
<g>
	<defs>
		<rect id="SVGID_1_" x="2.9" y="101.4" width="507.1" height="280.9"/>
	</defs>
	<clipPath id="SVGID_2_">
		<use xlink:href="#SVGID_1_"  style="overflow:visible;"/>
	</clipPath>
	<g>
		<path d="M201.9,382.4c-33.4,0-66.2-6.7-94.7-19.5c-5.4-1.1-26,4.1-39.7,7.4c-32,7.9-49.1,11.7-58.2,4.7
			c-13.7-10.6-0.3-27.9,13.9-46.2c4.8-6.2,12.4-16,14.5-20.8c-14.2-20.2-21.7-43-21.7-66c0-77.5,83.4-140.5,185.9-140.5
			c31.7,0,63,6.1,90.5,17.7c5.3,2.2,7.8,8.3,5.6,13.6c-2.2,5.3-8.3,7.8-13.6,5.6c-25-10.5-53.5-16.1-82.4-16.1
			c-91,0-165.1,53.7-165.1,119.7c0,19.6,6.7,39,19.4,56.2c8.3,11.2-2.7,25.4-16.6,43.4c-3.5,4.5-8.6,11.1-11.8,16.1
			c9.4-1.2,24.6-5,34.7-7.5c27.6-6.8,43.7-10.5,52.9-6.4c26,11.7,55.9,17.8,86.5,17.8c13.7,0,27.3-1.2,40.4-3.6
			c5.7-1,11.1,2.7,12.1,8.4c1,5.7-2.7,11.1-8.4,12.1C231.7,381,216.9,382.4,201.9,382.4z M106.9,362.7
			C106.9,362.7,106.9,362.7,106.9,362.7C106.9,362.7,106.9,362.7,106.9,362.7z M20.7,357.7L20.7,357.7z"/>
	</g>
	<g>
		<path d="M342.1,375.2c-86.4,0-156.7-53.3-156.7-118.8s70.3-118.8,156.7-118.8c86.4,0,156.7,53.3,156.7,118.8
			c0,19.3-6.1,38.3-17.8,55.2c2.1,4,7.8,11.4,11.5,16.1c11.8,15.3,24,31.1,11.2,41c-8.2,6.4-22.8,3.1-50-3.6
			c-11-2.7-27.5-6.8-32.2-6.2C397.6,369.6,370.1,375.2,342.1,375.2z M342.1,158.3c-74.9,0-135.9,44-135.9,98s61,98,135.9,98
			c25.3,0,50-5.1,71.4-14.7c8.2-3.7,21.1-0.7,45.2,5.2c7.1,1.8,17.3,4.3,24.9,5.6c-2.5-3.5-5.4-7.3-7.6-10.1
			c-12-15.6-21.5-27.8-13.8-38.3c10.5-14.2,15.8-29.6,15.8-45.8C478,202.3,417.1,158.3,342.1,158.3z M492.8,351.3L492.8,351.3
			L492.8,351.3z"/>
	</g>
</g>
</svg>
