<?xml version="1.0" encoding="utf-8"?>
<!-- Generator: Adobe Illustrator 25.2.3, SVG Export Plug-In . SVG Version: 6.00 Build 0)  -->
<svg version="1.1" id="Ebene_1" xmlns="http://www.w3.org/2000/svg" xmlns:xlink="http://www.w3.org/1999/xlink" x="0px" y="0px"
	 viewBox="0 0 512 512" style="enable-background:new 0 0 512 512;" xml:space="preserve">
<g>
	<g>
		<defs>
			<rect id="SVGID_1_" x="40.2" y="90.2" width="438.5" height="378.2"/>
		</defs>
		<clipPath id="SVGID_2_">
			<use xlink:href="#SVGID_1_"  style="overflow:visible;"/>
		</clipPath>
		<g>
			<path d="M391.5,468.4H56.2c-5.1,0-9.9-2.4-12.9-6.5s-3.9-9.4-2.4-14.2L147,101.5c2.1-6.7,8.3-11.3,15.3-11.3h229.1
				c8.9,0,16,7.2,16,16v69.4c0,8.9-7.2,16-16,16s-16-7.2-16-16v-53.4H174.2L77.9,436.4h297.5V383c0-8.9,7.2-16,16-16s16,7.2,16,16
				v69.4C407.5,461.3,400.3,468.4,391.5,468.4z"/>
		</g>
	</g>
	<g>
		<defs>
			<rect id="SVGID_3_" x="40.2" y="90.2" width="438.5" height="378.2"/>
		</defs>
		<clipPath id="SVGID_4_">
			<use xlink:href="#SVGID_3_"  style="overflow:visible;"/>
		</clipPath>
		<g>
			<path d="M425.1,295.4H193c-8.9,0-16-7.2-16-16s7.2-16,16-16h232.1c8.9,0,16,7.2,16,16S434,295.4,425.1,295.4z"/>
		</g>
	</g>
	<g>
		<defs>
			<rect id="SVGID_5_" x="40.2" y="90.2" width="438.5" height="378.2"/>
		</defs>
		<clipPath id="SVGID_6_">
			<use xlink:href="#SVGID_5_"  style="overflow:visible;"/>
		</clipPath>
		<g>
			<path d="M319.4,339.7c-1.8,0-3.6-0.6-5.2-1.6c-2.4-1.7-3.8-4.4-3.8-7.4V227.9c0-2.9,1.4-5.7,3.8-7.4
				c1.5-1.1,3.3-1.6,5.2-1.6c1,0,2.1,0.2,3.1,0.5l141.2,51.4c3.6,1.3,5.9,4.7,5.9,8.5s-2.4,7.2-5.9,8.5l-141.2,51.4
				C321.5,339.6,320.5,339.7,319.4,339.7"/>
		</g>
	</g>
	<g>
		<defs>
			<rect id="SVGID_7_" x="40.2" y="90.2" width="438.5" height="378.2"/>
		</defs>
		<clipPath id="SVGID_8_">
			<use xlink:href="#SVGID_7_"  style="overflow:visible;"/>
		</clipPath>
		<g>
			<path d="M319.4,209.9c-3.7,0-7.3,1.1-10.3,3.3c-4.8,3.4-7.7,8.9-7.7,14.8v102.8c0,5.9,2.9,11.4,7.7,14.8
				c3.1,2.2,6.7,3.3,10.3,3.3c2.1,0,4.2-0.4,6.2-1.1l141.2-51.4c7.1-2.6,11.9-9.4,11.9-16.9c0-7.6-4.7-14.4-11.9-16.9L325.6,211
				C323.6,210.3,321.5,209.9,319.4,209.9 M319.4,227.9l141.2,51.4l-141.2,51.4L319.4,227.9L319.4,227.9z"/>
		</g>
	</g>
</g>
</svg>
