<?xml version="1.0" encoding="utf-8"?>
<!-- Generator: Adobe Illustrator 25.2.3, SVG Export Plug-In . SVG Version: 6.00 Build 0)  -->
<svg version="1.1" id="Ebene_1" xmlns="http://www.w3.org/2000/svg" xmlns:xlink="http://www.w3.org/1999/xlink" x="0px" y="0px"
	 viewBox="0 0 512 512" style="enable-background:new 0 0 512 512;" xml:space="preserve">
<g>
	<g>
		<defs>
			<rect id="SVGID_1_" x="102.9" y="4.1" width="306.1" height="503.9"/>
		</defs>
		<clipPath id="SVGID_2_">
			<use xlink:href="#SVGID_1_"  style="overflow:visible;"/>
		</clipPath>
		<path d="M354.2,504H157.8c-28.1,0-50.9-22-50.9-48.9V57c0-27,22.8-48.9,50.9-48.9h196.4c28.1,0,50.9,22,50.9,48.9
			v365.5h-9.3V57c0-22-18.7-39.9-41.6-39.9H157.8c-22.9,0-41.6,17.9-41.6,39.9v398.2c0,22,18.7,39.9,41.6,39.9h196.4
			c22.9,0,41.6-17.9,41.6-39.9v-52.5h9.3v52.5C405,482.2,382.2,504,354.2,504"/>
	</g>
	<g>
		<defs>
			<rect id="SVGID_3_" x="102.9" y="4.1" width="306.1" height="503.9"/>
		</defs>
		<clipPath id="SVGID_4_">
			<use xlink:href="#SVGID_3_"  style="overflow:visible;"/>
		</clipPath>
		<path d="M354.2,504H157.8c-28.1,0-50.9-22-50.9-48.9V57c0-27,22.8-48.9,50.9-48.9h196.4c28.1,0,50.9,22,50.9,48.9
			v365.5h-9.3V57c0-22-18.7-39.9-41.6-39.9H157.8c-22.9,0-41.6,17.9-41.6,39.9v398.2c0,22,18.7,39.9,41.6,39.9h196.4
			c22.9,0,41.6-17.9,41.6-39.9v-52.5h9.3v52.5C405,482.2,382.2,504,354.2,504z"/>
	</g>
	<g>
		<defs>
			<rect id="SVGID_5_" x="102.9" y="4.1" width="306.1" height="503.9"/>
		</defs>
		<clipPath id="SVGID_6_">
			<use xlink:href="#SVGID_5_"  style="overflow:visible;"/>
		</clipPath>
		<path d="M400.3,440.3H111.5c-2.6,0-4.7-2-4.7-4.5V76.2c0-2.5,2.1-4.5,4.7-4.5h288.9c2.6,0,4.7,2,4.7,4.5v346.2h-9.3
			V80.9H116.1v350.5h279.5v-24.8h9.3v29.3C405,438.3,403,440.3,400.3,440.3"/>
	</g>
	<g>
		<defs>
			<rect id="SVGID_7_" x="102.9" y="4.1" width="306.1" height="503.9"/>
		</defs>
		<clipPath id="SVGID_8_">
			<use xlink:href="#SVGID_7_"  style="overflow:visible;"/>
		</clipPath>
		<path d="M400.3,440.3H111.5c-2.6,0-4.7-2-4.7-4.5V76.2c0-2.5,2.1-4.5,4.7-4.5h288.9c2.6,0,4.7,2,4.7,4.5v346.2h-9.3
			V80.9H116.1v350.5h279.5v-24.8h9.3v29.3C405,438.3,403,440.3,400.3,440.3z"/>
	</g>
	<g>
		<defs>
			<rect id="SVGID_9_" x="102.9" y="4.1" width="306.1" height="503.9"/>
		</defs>
		<clipPath id="SVGID_10_">
			<use xlink:href="#SVGID_9_"  style="overflow:visible;"/>
		</clipPath>
		<path d="M208.3,475h95.1v-16.7h-95.1V475z M308.2,484H203.8c-2.6,0-4.7-2-4.7-4.5v-25.8c0-2.5,2.1-4.5,4.7-4.5h104.4
			c2.6,0,4.7,2,4.7,4.5v25.8C312.8,482,310.8,484,308.2,484"/>
	</g>
	<g>
		<defs>
			<rect id="SVGID_11_" x="102.9" y="4.1" width="306.1" height="503.9"/>
		</defs>
		<clipPath id="SVGID_12_">
			<use xlink:href="#SVGID_11_"  style="overflow:visible;"/>
		</clipPath>
		<path d="M323.2,154.6h-20.4c-2.2,0-4.1,1.8-4.1,4v68.4h-85.6v-68.4c0-2.2-1.8-4-4.1-4h-20.4c-2.2,0-4.1,1.8-4.1,4
			v178.3c0,2.2,1.8,4,4.1,4h20.4c2.2,0,4.1-1.8,4.1-4v-83.5h85.6v83.5c0,2.2,1.8,4,4.1,4h20.4c2.2,0,4.1-1.8,4.1-4V158.4
			C327.2,156.2,325.5,154.6,323.2,154.6"/>
	</g>
</g>
</svg>
