<?xml version="1.0" encoding="utf-8"?>
<!-- Generator: Adobe Illustrator 25.2.3, SVG Export Plug-In . SVG Version: 6.00 Build 0)  -->
<svg version="1.1" id="Ebene_1" xmlns="http://www.w3.org/2000/svg" xmlns:xlink="http://www.w3.org/1999/xlink" x="0px" y="0px"
	 viewBox="0 0 512 512" style="enable-background:new 0 0 512 512;" xml:space="preserve">
<g>
	<g>
		<defs>
			<rect id="SVGID_1_" x="29.5" y="45.4" width="452.8" height="452.1"/>
		</defs>
		<clipPath id="SVGID_2_">
			<use xlink:href="#SVGID_1_"  style="overflow:visible;"/>
		</clipPath>
		<path d="M122,77.8L122,77.8L122,77.8 M122,77.8L122,77.8L122,77.8 M122,77.8L122,77.8L122,77.8 M124.9,77.8
			L124.9,77.8L124.9,77.8 M124.9,77.9L124.9,77.9L124.9,77.9z M122.8,77.9C82.2,78,49,111.1,48.7,151.8c0,0.7,0,0.9,0,1.1
			c0,0.2,0,0.4,0,0.6C50.1,332.6,197,478.3,376.1,478.3c41,0,74.3-33.3,74.3-74.3c0-5.7-0.7-11.4-2-16.9c-0.4-1.9-0.9-3.8-1.5-5.7
			l-126-27.2c-8.4,9.3-14.3,20.6-17.2,32.8c-0.6,2.7-2.3,4.9-4.7,6.3c-2.4,1.3-5.2,1.6-7.8,0.7c-72.8-25.4-131.7-83.9-157.7-156.6
			c-0.9-2.6-0.7-5.5,0.6-7.9s3.6-4.1,6.3-4.7c12.3-2.7,23.6-8.5,33-16.8L145.2,81c-1.9-0.6-3.8-1-5.6-1.4
			c-5.1-1.1-10.3-1.6-15.4-1.6C123.9,77.9,123.4,77.9,122.8,77.9 M376.2,497.5c-189.5,0-345-154.1-346.7-343.6c0-0.6,0-1.1,0-1.7
			v-0.5c0.3-51.3,42.3-93,93.5-93c0.2,0,0.4,0,0.6,0s0.5,0,0.7,0c6.5,0,13,0.7,19.4,2c4.3,0.9,8.8,2.2,13.2,3.8
			c3.1,1.1,5.4,3.8,6.1,6.9L193.6,209c0.7,3.2-0.2,6.5-2.5,8.8c-10.1,10.2-22.2,17.9-35.6,22.6c24.3,59.7,72.9,107.9,132.7,131.8
			c4.8-13.4,12.6-25.5,23-35.5c2.3-2.2,5.6-3.2,8.7-2.5l136.4,29.4c3.1,0.7,5.7,2.8,6.9,5.8c1.8,4.3,3.2,8.8,4.2,13.3
			c1.6,6.9,2.4,14,2.4,21.2C469.7,455.5,427.8,497.5,376.2,497.5"/>
	</g>
	<g>
		<defs>
			<rect id="SVGID_3_" x="29.5" y="45.4" width="452.8" height="452.1"/>
		</defs>
		<clipPath id="SVGID_4_">
			<use xlink:href="#SVGID_3_"  style="overflow:visible;"/>
		</clipPath>
		<path d="M365.5,260.5h-19.2c0-28.2-15.2-54.4-39.6-68.6l9.6-16.7C346.7,192.9,365.5,225.5,365.5,260.5"/>
	</g>
	<g>
		<defs>
			<rect id="SVGID_5_" x="29.5" y="45.4" width="452.8" height="452.1"/>
		</defs>
		<clipPath id="SVGID_6_">
			<use xlink:href="#SVGID_5_"  style="overflow:visible;"/>
		</clipPath>
		<path d="M289.2,184.5c-7.1-2.1-14.5-3.1-22-3.1v-19.2c9.3,0,18.5,1.3,27.4,3.9L289.2,184.5z"/>
	</g>
	<g>
		<defs>
			<rect id="SVGID_7_" x="29.5" y="45.4" width="452.8" height="452.1"/>
		</defs>
		<clipPath id="SVGID_8_">
			<use xlink:href="#SVGID_7_"  style="overflow:visible;"/>
		</clipPath>
		<path d="M482.3,240.2h-19.2c0-18.3-2.8-36.2-8.3-53.5l18.3-5.9C479.2,200,482.3,220,482.3,240.2"/>
	</g>
	<g>
		<defs>
			<rect id="SVGID_9_" x="29.5" y="45.4" width="452.8" height="452.1"/>
		</defs>
		<clipPath id="SVGID_10_">
			<use xlink:href="#SVGID_9_"  style="overflow:visible;"/>
		</clipPath>
		<path d="M447.2,167.2C418.7,104.9,356,64.6,287.5,64.6V45.4c76,0,145.6,44.7,177.2,113.8L447.2,167.2z"/>
	</g>
</g>
</svg>
