<?xml version="1.0" encoding="UTF-8"?><svg id="Ebene_1" xmlns="http://www.w3.org/2000/svg" viewBox="0 0 196.62 169"><path id="Icon" d="m193.91,14.92h-13.56V2.71c0-1.5-1.21-2.71-2.71-2.71h-60.34c-9.02,0-15.51,2.39-19.32,7.11-.12.15-.23.3-.35.46-.11-.15-.22-.3-.35-.46C93.48,2.39,86.98,0,77.97,0H17.63C16.13,0,14.92,1.21,14.92,2.71v12.2H2.71c-1.5,0-2.71,1.21-2.71,2.71v133.56c0,1.5,1.21,2.71,2.71,2.71h69.15c12.2,0,17.61,12.7,17.83,13.23.41,1.01,1.38,1.67,2.47,1.69l11.52.18h.04c.96,0,1.86-.51,2.34-1.34,2.23-3.83,9.58-13.75,16.64-13.75h71.19c1.5,0,2.71-1.21,2.71-2.71V17.63c0-1.5-1.21-2.71-2.71-2.71Zm-93.56,0c0-.1.19-9.49,16.95-9.49h57.63v129.5h-59.66c-6.59,0-11.57,3.35-14.92,6.74V14.92ZM20.34,5.42h57.63c16.5,0,16.94,9.14,16.95,9.49v126.75c-3.35-3.39-8.33-6.74-14.92-6.74H20.34V5.42Zm170.85,143.06h-68.48c-9.73,0-17.87,11.1-20.47,15.07l-8.31-.13c-2.19-4.22-9.04-14.94-22.06-14.94H5.42V20.34h9.49v117.29c0,1.5,1.21,2.71,2.71,2.71h62.37c9.66,0,15.13,10.57,15.2,10.71,0,.01.02.02.02.03.1.19.22.37.37.53.04.04.07.08.11.12.15.15.3.28.48.39.04.02.08.04.12.06.15.09.31.16.48.21.05.02.11.04.16.05.02,0,.03.01.05.02.16.04.32.05.48.06.05,0,.1.02.15.02.21,0,.42-.02.63-.07.03,0,.06-.02.09-.03.02,0,.05-.02.07-.02.22-.07.43-.15.62-.27,0,0,.01,0,.02-.01.2-.12.37-.27.53-.43.02-.03.05-.05.07-.08.15-.17.28-.35.39-.55,0-.01.01-.02.02-.03.05-.11,5.53-10.71,15.21-10.71h62.37c1.5,0,2.71-1.21,2.71-2.71V20.34h10.85v128.14Z" style="fill:#19355a;"/></svg>