<?xml version="1.0" encoding="utf-8"?>
<!-- Generator: Adobe Illustrator 25.2.3, SVG Export Plug-In . SVG Version: 6.00 Build 0)  -->
<svg version="1.1" id="Ebene_1" xmlns="http://www.w3.org/2000/svg" xmlns:xlink="http://www.w3.org/1999/xlink" x="0px" y="0px"
	 viewBox="0 0 512 512" style="enable-background:new 0 0 512 512;" xml:space="preserve">
<g>
	<rect x="292.7" y="200.8" width="154.2" height="17.1"/>
</g>
<g>
	<rect x="292.7" y="248.2" width="154.2" height="17.1"/>
</g>
<g>
	<rect x="292.7" y="295.5" width="154.2" height="17.1"/>
</g>
<g>
	<g>
		<defs>
			<rect id="SVGID_1_" x="9" y="121.4" width="501.9" height="282.2"/>
		</defs>
		<clipPath id="SVGID_2_">
			<use xlink:href="#SVGID_1_"  style="overflow:visible;"/>
		</clipPath>
		<g>
			<path d="M468.9,403.7H51c-23.2,0-42-18.8-42-42V163.4c0-23.2,18.8-42,42-42h417.9c23.2,0,42,18.8,42,42v198.3
				C510.9,384.8,492.1,403.7,468.9,403.7z M51,138.6c-13.7,0-24.8,11.1-24.8,24.8v198.3c0,13.7,11.1,24.8,24.8,24.8h417.9
				c13.7,0,24.8-11.1,24.8-24.8V163.4c0-13.7-11.1-24.8-24.8-24.8L51,138.6L51,138.6z"/>
		</g>
	</g>
	<g>
		<defs>
			<rect id="SVGID_3_" x="9" y="121.4" width="501.9" height="282.2"/>
		</defs>
		<clipPath id="SVGID_4_">
			<use xlink:href="#SVGID_3_"  style="overflow:visible;"/>
		</clipPath>
		<g>
			<path d="M157.2,273.7c-32.9,0-59.6-26.7-59.6-59.6s26.7-59.6,59.6-59.6s59.6,26.7,59.6,59.6S190.1,273.7,157.2,273.7
				z M157.2,171.6c-23.4,0-42.4,19-42.4,42.4s19,42.4,42.4,42.4s42.4-19,42.4-42.4C199.7,190.7,180.6,171.6,157.2,171.6z"/>
		</g>
	</g>
	<g>
		<defs>
			<rect id="SVGID_5_" x="9" y="121.4" width="501.9" height="282.2"/>
		</defs>
		<clipPath id="SVGID_6_">
			<use xlink:href="#SVGID_5_"  style="overflow:visible;"/>
		</clipPath>
		<g>
			<path d="M252.1,356.6H235c0-42.9-34.9-77.8-77.8-77.8s-77.8,34.9-77.8,77.8H62.3c0-52.3,42.6-94.9,94.9-94.9
				C209.5,261.8,252.1,304.3,252.1,356.6z"/>
		</g>
	</g>
</g>
</svg>
