<?xml version="1.0" encoding="utf-8"?>
<!-- Generator: Adobe Illustrator 25.2.3, SVG Export Plug-In . SVG Version: 6.00 Build 0)  -->
<svg version="1.1" id="Ebene_1" xmlns="http://www.w3.org/2000/svg" xmlns:xlink="http://www.w3.org/1999/xlink" x="0px" y="0px"
	 viewBox="0 0 512 512" style="enable-background:new 0 0 512 512;" xml:space="preserve">
<g>
	<g>
		<g>
			<defs>
				<rect id="SVGID_1_" x="10.1" y="10.1" width="491.8" height="491.8"/>
			</defs>
			<clipPath id="SVGID_2_">
				<use xlink:href="#SVGID_1_"  style="overflow:visible;"/>
			</clipPath>
			<path d="M256,27.7c-125.9,0-228.4,102.5-228.4,228.4S130.1,484.5,256,484.5S484.4,382,484.4,256.1
				C484.4,130.1,381.9,27.7,256,27.7 M256,502C120.4,502,10.1,391.7,10.1,256.1S120.4,10.2,256,10.2
				c135.6-0.1,245.9,110.3,245.9,245.9S391.6,502,256,502"/>
		</g>
		<g>
			<defs>
				<rect id="SVGID_3_" x="10.1" y="10.1" width="491.8" height="491.8"/>
			</defs>
			<clipPath id="SVGID_4_">
				<use xlink:href="#SVGID_3_"  style="overflow:visible;"/>
			</clipPath>
			<path d="M256,27.7c-66.6,0-120.8,102.5-120.8,228.4S189.4,484.5,256,484.5S376.8,382,376.8,256.1
				C376.8,130.1,322.6,27.7,256,27.7 M256,502c-38,0-73.2-26.3-99.3-74c-25.2-46.1-39-107.1-39-171.9s13.9-125.8,39-171.9
				c26.1-47.7,61.3-74,99.3-74s73.2,26.3,99.3,74c25.2,46.1,39,107.1,39,171.9s-13.9,125.8-39,171.9C329.2,475.7,293.9,502,256,502"
				/>
		</g>
	</g>
	<rect x="48.1" y="247.3" width="445" height="17.5"/>
	<rect x="247.2" y="18.9" width="17.5" height="474.3"/>
	<rect x="80.8" y="125.6" width="379.7" height="17.5"/>
	<rect x="80.8" y="369" width="379.7" height="17.5"/>
</g>
</svg>
